<svg width="42" height="35" viewBox="0 0 42 35" fill="none" xmlns="http://www.w3.org/2000/svg">
<path fill-rule="evenodd" clip-rule="evenodd" d="M27.5514 21.4522C27.269 20.6119 26.4543 19.9921 25.4876 19.9921H24.4014V16.8407C24.4014 16.5621 24.287 16.2949 24.0833 16.0979C23.8796 15.9009 23.6033 15.7903 23.3152 15.7903H16.798V13.6894H18.9704C19.2585 13.6894 19.5348 13.5787 19.7385 13.3817C19.9422 13.1847 20.0566 12.9175 20.0566 12.6389V10.538H22.229C22.8052 10.538 23.3577 10.3166 23.7651 9.92265C24.1725 9.52865 24.4014 8.99428 24.4014 8.43708V8.00639C25.701 8.5131 26.8543 9.31681 27.7626 10.3487C28.6709 11.3807 29.307 12.6101 29.6167 13.9317C29.9263 15.2534 29.9001 16.6279 29.5405 17.9376C29.1808 19.2474 28.4983 20.4533 27.5514 21.4522ZM20.0566 24.1204C15.7661 23.6057 12.4532 20.0761 12.4532 15.7903C12.4532 15.139 12.5401 14.5087 12.6813 13.91L17.8842 18.9416V19.9921C17.8842 20.5493 18.1131 21.0837 18.5205 21.4777C18.9279 21.8717 19.4804 22.093 20.0566 22.093V24.1204ZM21.1428 5.28571C19.7164 5.28571 18.3039 5.55742 16.9861 6.08533C15.6682 6.61323 14.4708 7.38699 13.4622 8.36243C11.4252 10.3324 10.2808 13.0043 10.2808 15.7903C10.2808 18.5763 11.4252 21.2481 13.4622 23.2181C14.4708 24.1936 15.6682 24.9673 16.9861 25.4952C18.3039 26.0231 19.7164 26.2948 21.1428 26.2948C24.0236 26.2948 26.7864 25.1881 28.8234 23.2181C30.8605 21.2481 32.0048 18.5763 32.0048 15.7903C32.0048 14.4108 31.7239 13.0448 31.178 11.7704C30.6322 10.4959 29.8321 9.33787 28.8234 8.36243C27.8148 7.38699 26.6174 6.61323 25.2995 6.08533C23.9817 5.55742 22.5692 5.28571 21.1428 5.28571Z" fill="#0C91CE"/>
<path d="M34.1586 3.37312C34.9635 4.37317 36.3687 4.9637 37.1912 5.96741C36.6015 3.00016 34.4088 0.579555 31.8189 0C33.0841 0.994568 33.3571 2.37672 34.1586 3.37312ZM3.01687 10.8927C4.8018 6.834 7.46519 7.69327 8.59214 3.82835C7.96742 5.01306 5.05029 5.514 3.69585 8.55438C4.38532 6.74807 4.03883 3.98375 5.20603 2.49373C1.71843 5.18126 3.20237 9.52884 3.01687 10.8927ZM6.24899 20.6263C6.56923 22.2059 5.62427 24.4876 7.12395 26.6668C5.57352 24.8532 2.29065 24.3907 0.95371 21.6318C2.61964 28.3781 6.99446 26.985 8.95088 28.4512C7.33394 26.0233 8.65689 24.4108 6.24899 20.6263ZM5.74676 24.8587C4.7913 21.0925 6.49398 19.7871 5.19203 16.1745C5.05729 18.2112 3.75709 19.2039 4.63381 22.9208C3.08687 19.7743 0.692971 18.5988 0 16.436C0.047248 22.3503 4.59706 23.2279 5.74676 24.8587ZM12.7325 31.1698C11.3938 29.2319 12.316 28.1386 8.54664 24.6229C9.34111 25.9063 8.52039 27.5206 11.0578 30.0308C8.57464 28.5079 5.15179 29.1606 3.4981 27.1129C6.33649 32.786 11.3203 30.4714 12.7325 31.1753V31.1698ZM30.9405 30.0326C33.4779 27.5206 32.6554 25.8971 33.4516 24.621C29.6893 28.1386 30.6045 29.2337 29.2658 31.1698C30.678 30.4641 35.6618 32.7787 38.4967 27.1129C36.8482 29.1642 33.4219 28.5079 30.9405 30.0381V30.0326ZM34.8743 26.6614C36.3687 24.4857 35.429 22.2004 35.7493 20.6208C33.3414 24.4053 34.6643 26.0178 33.0421 28.4549C35.009 26.9904 39.3664 28.3781 41.0393 21.6355C39.7023 24.3907 36.4247 24.8532 34.8743 26.6668V26.6614ZM28.8633 31.4367C27.5203 31.0588 26.1408 30.8399 24.751 30.7841C23.4715 30.7531 22.1984 30.9796 21.0009 31.4514C19.8039 30.9799 18.5314 30.7533 17.2525 30.7841C15.8621 30.8397 14.482 31.0587 13.1385 31.4367C10.874 32.0657 8.91938 32.552 7.2132 31.6561C8.84763 33.1791 10.7533 33.7111 13.5094 33.3966C15.8018 33.1407 17.6568 31.9395 19.8179 31.9578H19.9037C18.544 32.6685 17.3321 33.6526 16.3373 34.8537L17.3785 35C17.3785 35 18.4775 32.6964 21.0009 32.0931C23.526 32.6964 24.6232 35 24.6232 35L25.6644 34.8537C24.6684 33.6579 23.4565 32.6788 22.0981 31.9724H22.1856C24.3467 31.9541 26.1982 33.1553 28.4906 33.4113C31.2467 33.7221 33.1541 33.1809 34.7903 31.6708C33.0841 32.5611 31.1277 32.073 28.8633 31.4441V31.4367ZM5.34603 12.0902C4.41332 13.9623 2.96438 14.3902 3.12362 18.2642C2.33615 14.8198 0.465481 13.5473 0.48998 11.3498C-0.810216 17.0722 2.66339 17.7523 3.55585 20.151C3.42461 16.7139 5.52277 16.0191 5.34603 12.0884M6.64972 7.67133C6.32599 8.14668 6.0985 8.34779 5.23228 9.09371C3.93097 10.1714 3.0365 11.6952 2.70714 13.3956C2.79638 11.3004 1.55744 8.28563 2.3799 6.08807C-0.811966 10.7995 2.56364 13.6205 2.68264 15.328C3.5121 12.0445 5.41427 12.0189 6.64972 7.67316M39.2876 13.3974C38.9574 11.6988 38.0645 10.1762 36.766 9.09737C35.8998 8.35144 35.6723 8.14851 35.3485 7.67499C36.5822 12.0262 38.4861 12.0445 39.3034 15.3299C39.4241 13.6241 42.7997 10.8013 39.6044 6.0899C40.4373 8.28745 39.1984 11.3004 39.2894 13.3992M41.9983 16.4469C41.3035 18.6097 38.9114 19.7835 37.3627 22.939C38.2394 19.2149 36.9462 18.2222 36.8045 16.1928C35.5043 19.8109 37.221 21.1108 36.2515 24.877C37.4029 23.2297 41.9528 22.3522 42 16.4378L41.9983 16.4469ZM36.661 12.092C36.4825 16.0228 38.5841 16.7175 38.4511 20.1436C39.3436 17.7486 42.826 17.0667 41.517 11.3443C41.5415 13.5382 39.6709 14.8253 38.8904 18.2459C39.0356 14.392 37.5867 13.9642 36.6592 12.092M7.84142 3.38592C8.64814 2.38587 8.92113 1.00919 10.1828 0.0127976C7.59293 0.592353 5.39328 3.01478 4.81055 5.9802C5.62252 4.96552 7.02946 4.37683 7.83442 3.37495L7.84142 3.38592ZM33.4131 3.83932C34.5401 7.70607 37.2034 6.84679 38.9866 10.9037C38.8011 9.5398 40.2868 5.19223 36.7992 2.5047C37.9664 3.99838 37.6217 6.75904 38.3094 8.56535C36.9497 5.514 34.0396 5.01306 33.4044 3.82835L33.4131 3.83932Z" fill="#0C91CE"/>
</svg>
