<svg width="25" height="24" viewBox="0 0 25 24" fill="none" xmlns="http://www.w3.org/2000/svg">
<path d="M12.5 24C19.1274 24 24.5 18.6274 24.5 12C24.5 5.37258 19.1274 0 12.5 0C5.87258 0 0.5 5.37258 0.5 12C0.5 18.6274 5.87258 24 12.5 24Z" fill="#26A17B"/>
<path fill-rule="evenodd" clip-rule="evenodd" d="M13.9416 13.0373V13.0358C13.8591 13.0418 13.4338 13.0673 12.4851 13.0673C11.7276 13.0673 11.1943 13.0448 11.0068 13.0358V13.038C8.09085 12.9098 5.91435 12.402 5.91435 11.7945C5.91435 11.1878 8.09085 10.68 11.0068 10.5495V12.5325C11.1973 12.546 11.7433 12.5783 12.4978 12.5783C13.4031 12.5783 13.8568 12.5408 13.9416 12.5333V10.551C16.8516 10.6808 19.0228 11.1885 19.0228 11.7945C19.0228 12.402 16.8516 12.9083 13.9416 13.0373ZM13.9416 10.3448V8.57026H18.0021V5.86426H6.94635V8.57026H11.0068V10.344C7.70685 10.4955 5.2251 11.1495 5.2251 11.9325C5.2251 12.7155 7.70685 13.3688 11.0068 13.521V19.2075H13.9416V13.5195C17.2363 13.368 19.7121 12.7148 19.7121 11.9325C19.7121 11.1503 17.2363 10.497 13.9416 10.3448Z" fill="white"/>
</svg>
